<svg width="34" height="35" viewBox="0 0 34 35" fill="none" xmlns="http://www.w3.org/2000/svg">
<g id="hand-heart">
<path id="Vector" d="M15.5833 20.3333H18.4167C19.1681 20.3333 19.8888 20.0348 20.4201 19.5035C20.9515 18.9721 21.25 18.2514 21.25 17.5C21.25 16.7485 20.9515 16.0279 20.4201 15.4965C19.8888 14.9652 19.1681 14.6667 18.4167 14.6667H14.1667C13.3167 14.6667 12.6083 14.95 12.1833 15.5167L4.25 23.1667" stroke="#1F1F1F" stroke-width="2" stroke-linecap="round" stroke-linejoin="round"/>
<path id="Vector_2" d="M9.91675 28.8333L12.1834 26.85C12.6084 26.2833 13.3167 26 14.1667 26H19.8334C21.3917 26 22.8084 25.4333 23.8001 24.3L30.3167 18.0667C30.8634 17.55 31.1825 16.8374 31.2037 16.0856C31.225 15.3337 30.9467 14.6042 30.4301 14.0575C29.9135 13.5108 29.2008 13.1918 28.449 13.1705C27.6971 13.1493 26.9676 13.4275 26.4209 13.9442L20.4709 19.4692" stroke="#1F1F1F" stroke-width="2" stroke-linecap="round" stroke-linejoin="round"/>
<path id="Vector_3" d="M2.83325 21.75L11.3333 30.25" stroke="#1F1F1F" stroke-width="2" stroke-linecap="round" stroke-linejoin="round"/>
<path id="Vector_4" d="M27.6249 12.5417C28.6166 11.55 29.7499 10.275 29.7499 8.71667C29.8489 7.85098 29.6527 6.97722 29.193 6.23699C28.7334 5.49675 28.0373 4.93342 27.2174 4.63829C26.3976 4.34315 25.5021 4.3335 24.6761 4.61091C23.8502 4.88831 23.142 5.43651 22.6666 6.16667C22.1608 5.49316 21.4525 4.99951 20.6456 4.75819C19.8387 4.51688 18.9757 4.5406 18.1832 4.82588C17.3908 5.11116 16.7106 5.64297 16.2427 6.34325C15.7747 7.04352 15.5436 7.87537 15.5832 8.71667C15.5832 10.4167 16.7166 11.55 17.7082 12.6833L22.6666 17.5L27.6249 12.5417Z" stroke="#1F1F1F" stroke-width="2" stroke-linecap="round" stroke-linejoin="round"/>
</g>
</svg>
