<svg width="132" height="47" viewBox="0 0 132 47" fill="none" xmlns="http://www.w3.org/2000/svg">
<g id="LOGO AYUNTAMIENTO" clip-path="url(#clip0_71_390)">
<g id="Group">
<path id="Vector" d="M13.3264 2.81826C13.3625 4.28277 13.4167 5.56868 13.4528 5.67584C13.507 5.81872 13.8501 5.90802 14.3557 5.90802H15.1682V3.05044V0.192865H14.2293H13.2722L13.3264 2.81826Z" fill="#1F1F1F"/>
<path id="Vector_2" d="M10.5274 2.99689C9.64255 3.08619 9.64255 3.08619 9.96758 5.05077L10.1662 6.30096L10.9788 6.19381C11.4302 6.14023 11.8275 6.05093 11.8636 6.01521C12.0261 5.87233 11.6469 2.99689 11.4664 2.96117C11.3761 2.94331 10.9427 2.96117 10.5274 2.99689Z" fill="#1F1F1F"/>
<path id="Vector_3" d="M16.7213 3.08617C16.6852 3.21119 16.5949 3.92558 16.5407 4.6757L16.4324 6.05091L17.263 6.17592C17.7145 6.2295 18.1298 6.24736 18.1839 6.19378C18.2923 6.08662 18.6715 3.22905 18.5812 3.15761C18.5451 3.12189 18.1298 3.03259 17.6422 2.97901C17.0102 2.88971 16.7755 2.90757 16.7213 3.08617Z" fill="#1F1F1F"/>
<path id="Vector_4" d="M7.22301 3.65768C6.30208 3.90772 6.30208 3.88986 6.8438 5.6937C7.16883 6.78315 7.29524 6.97961 7.54804 6.89031C7.71056 6.83673 8.07171 6.72957 8.36063 6.67599C8.6676 6.62241 8.84818 6.46168 8.84818 6.26522C8.84818 5.74728 8.27034 3.40764 8.14394 3.4255C8.08976 3.44336 7.67444 3.53266 7.22301 3.65768Z" fill="#1F1F1F"/>
<path id="Vector_5" d="M20.1521 3.71128C20.0979 3.88987 19.9354 4.58641 19.7909 5.24722C19.5201 6.60457 19.502 6.60457 20.6577 6.67601L21.3439 6.71173L21.6869 5.55084C22.2106 3.72914 22.2287 3.78271 20.8202 3.49696C20.3688 3.40766 20.2423 3.44338 20.1521 3.71128Z" fill="#1F1F1F"/>
<path id="Vector_6" d="M23.0955 5.81873L22.626 7.31895L23.4205 7.62257C23.8539 7.78331 24.2331 7.89047 24.2692 7.85475C24.3956 7.72973 25.4791 4.97931 25.4249 4.92573C25.3888 4.89001 23.6372 4.30064 23.583 4.30064C23.565 4.30064 23.3483 4.97931 23.0955 5.81873Z" fill="#1F1F1F"/>
<path id="Vector_7" d="M4.02675 4.71143C3.71977 4.83644 3.41279 4.97932 3.35862 5.0329C3.1961 5.19364 4.35178 7.87262 4.56847 7.87262C5.03796 7.87262 5.95889 7.42612 5.95889 7.17609C5.95889 7.03321 5.77832 6.37239 5.56163 5.69372C5.14631 4.38995 5.05602 4.33637 4.02675 4.71143Z" fill="#1F1F1F"/>
<path id="Vector_8" d="M0.866767 6.17592L0.0180664 6.62242L0.758422 7.90832C1.15569 8.62272 1.51684 9.24781 1.55295 9.28353C1.69741 9.44427 3.06978 8.69416 3.06978 8.46198C3.06978 8.24766 1.85993 5.71156 1.75158 5.72942C1.73352 5.74728 1.33626 5.94374 0.866767 6.17592Z" fill="#1F1F1F"/>
<path id="Vector_9" d="M26.2736 6.97961C25.9305 7.65829 25.6416 8.30124 25.6416 8.4084C25.6416 8.56914 27.0681 9.39069 27.1584 9.26567C27.3932 8.96206 28.7114 6.56884 28.6753 6.53312C28.5489 6.42596 27.0862 5.72942 27.014 5.72942C26.9598 5.72942 26.6167 6.28308 26.2736 6.97961Z" fill="#1F1F1F"/>
<path id="Vector_10" d="M11.4304 7.87263C9.10095 8.17625 6.37428 8.96209 4.15321 9.9801C2.49192 10.7481 2.45581 10.7838 2.69056 11.2303C2.88919 11.6053 2.90725 11.6053 3.46703 11.266C4.00875 10.9445 4.04487 10.9445 4.26156 11.2303C4.60465 11.6768 4.56853 11.7661 3.97264 12.0697C3.3948 12.3733 3.34062 12.4626 3.59343 12.8555C3.73789 13.0699 3.97264 13.0163 5.01997 12.5519C8.12585 11.141 10.9789 10.5159 14.446 10.5338C17.7144 10.5516 21.073 11.3196 23.7997 12.6769C24.5942 13.0699 24.9193 13.1592 25.0818 12.9984C25.3888 12.6948 25.3346 12.5519 24.7387 12.2483C24.1789 11.9625 24.0525 11.6589 24.3956 11.3196C24.5581 11.1588 24.7568 11.1946 25.2082 11.4089C25.786 11.6768 25.8402 11.6768 26.075 11.3374C26.2194 11.1588 26.2916 10.9445 26.2375 10.8552C25.9124 10.3373 21.5967 8.72991 19.2312 8.24769C17.1365 7.81906 13.2903 7.64046 11.4304 7.87263ZM14.9877 9.12282C14.9877 9.6229 14.9335 9.65862 14.3557 9.65862C13.9584 9.65862 13.6695 9.55146 13.6153 9.39072C13.4167 8.89065 13.6875 8.58703 14.3557 8.58703C14.9335 8.58703 14.9877 8.62275 14.9877 9.12282ZM9.38987 9.28356C9.38987 9.37286 9.44404 9.56932 9.49822 9.73006C9.62462 10.0694 8.487 10.4266 8.27031 10.123C7.99945 9.73006 8.12585 9.31928 8.54117 9.24784C9.24541 9.10496 9.38987 9.12282 9.38987 9.28356ZM20.2785 9.48002C20.3688 9.55146 20.3869 9.78364 20.3146 9.99796C20.2243 10.3016 20.0979 10.3552 19.7187 10.2659C19.0506 10.1051 18.9061 9.94438 19.0506 9.48002C19.159 9.15854 19.2673 9.12282 19.6465 9.21212C19.9174 9.2657 20.2063 9.39072 20.2785 9.48002Z" fill="#1F1F1F"/>
<path id="Vector_11" d="M0.0361149 22.9106L0.0902873 30.8225H6.77155H13.4528L13.4889 23.1964C13.507 18.9814 13.4889 15.4273 13.4347 15.2844C13.3445 15.0523 12.4235 15.0165 6.6632 15.0165H0L0.0361149 22.9106Z" fill="#1F1F1F"/>
<path id="Vector_12" d="M15.3489 22.8571C15.3489 29.8403 15.385 30.7154 15.6378 30.8047C15.8003 30.8583 18.7979 30.9119 22.3191 30.9119H28.7114V22.9642V15.0166H22.0301H15.3489V22.8571Z" fill="#1F1F1F"/>
<path id="Vector_13" d="M37.7761 15.3202C37.5955 15.6595 33.7673 27.3577 33.7673 27.5721C33.7673 27.7328 34.5438 27.7328 34.923 27.5899C35.0855 27.5363 35.4467 26.7326 35.7898 25.7146L36.3676 23.9465H38.3359C40.0513 23.9465 40.3041 23.9822 40.3944 24.2501C40.4305 24.4287 40.7375 25.2503 41.0445 26.0897C41.6223 27.5899 41.6223 27.6078 42.2543 27.6078C42.7419 27.6078 42.8863 27.5363 42.8683 27.3042C42.8502 27.1256 41.9112 24.2858 40.7917 20.9996C38.9137 15.4809 38.7331 15.0166 38.3539 15.0166C38.1192 15.0166 37.8664 15.1595 37.7761 15.3202ZM38.9859 20.0531C39.329 21.0711 39.636 21.9998 39.6721 22.1069C39.7444 22.2855 39.4193 22.3391 38.39 22.3391C37.5233 22.3391 37.0177 22.2677 37.0177 22.1427C37.0177 21.7855 38.1553 18.2314 38.2817 18.2314C38.3359 18.2314 38.6609 19.0529 38.9859 20.0531Z" fill="#1F1F1F"/>
<path id="Vector_14" d="M123.152 17.3026V19.4101L122.123 19.3387C120.841 19.2494 120.046 19.7137 119.36 20.9103C118.963 21.6069 118.908 21.9283 118.908 23.4107C118.908 24.8574 118.981 25.2324 119.36 26.0004C119.992 27.2684 120.913 27.6971 122.917 27.6971H124.416V21.4461V15.1952H123.784H123.152V17.3026ZM122.935 20.9461C123.08 21.0889 123.152 21.9641 123.152 23.7143V26.2683H122.448C120.967 26.2683 120.299 25.6432 120.136 24.0715C119.938 22.1784 120.786 20.7317 122.05 20.7317C122.43 20.7317 122.809 20.821 122.935 20.9461Z" fill="#1F1F1F"/>
<path id="Vector_15" d="M85.1589 16.2489C84.5268 16.9454 85.1589 18.2313 85.9173 17.767C86.3326 17.4991 86.4048 16.5704 86.0437 16.1953C85.6645 15.8202 85.5381 15.8381 85.1589 16.2489Z" fill="#1F1F1F"/>
<path id="Vector_16" d="M63.9594 19.3029L62.8218 20.821L63.3454 20.8746L63.8872 20.9282L63.9413 23.6429C64.0136 26.6969 64.1761 27.1613 65.2776 27.6256C65.7651 27.8221 66.0179 27.8221 66.65 27.6435C67.4264 27.4113 67.4445 27.3934 67.4987 26.5719L67.5528 25.7146L67.0111 25.9825C66.7222 26.1432 66.3069 26.2683 66.1263 26.2683C65.4221 26.2683 65.2776 25.786 65.2234 23.2857L65.1512 20.9103H66.1624H67.1736V20.2138V19.4994L66.2346 19.4458L65.2776 19.3922L65.1873 18.5885L65.097 17.8027L63.9594 19.3029Z" fill="#1F1F1F"/>
<path id="Vector_17" d="M101.718 19.3565L100.598 20.821L101.176 20.9103L101.754 20.9996L101.772 23.625C101.808 25.8575 101.862 26.3576 102.151 26.8398C102.621 27.6256 103.56 27.9471 104.517 27.6435C105.149 27.4471 105.185 27.3935 105.239 26.5719L105.293 25.7146L104.751 25.9825C104.029 26.3576 103.523 26.3397 103.289 25.929C103.198 25.7325 103.108 24.5359 103.108 23.25V20.9103H104.101H105.094V20.196V19.4816H104.101H103.108V18.6779C103.108 18.2314 103.054 17.8742 102.982 17.8742C102.891 17.8742 102.332 18.535 101.718 19.3565Z" fill="#1F1F1F"/>
<path id="Vector_18" d="M58.7048 19.7673C58.1631 20.2138 58.145 20.2138 58.145 19.8566C58.145 19.5351 58.0367 19.4815 57.4227 19.4815H56.6824L56.7365 23.5357L56.7907 27.6077H57.4227H58.0547L58.1089 24.5359L58.145 21.464L58.6326 21.1068C59.3007 20.571 60.0411 20.6245 60.4383 21.2139C60.7092 21.6247 60.7814 22.1962 60.8356 24.7144L60.8898 27.7149L61.4676 27.6613L62.0274 27.6077L62.0816 24.6966C62.0996 22.9642 62.0454 21.4818 61.919 21.0532C61.4857 19.4279 59.8785 18.785 58.7048 19.7673Z" fill="#1F1F1F"/>
<path id="Vector_19" d="M68.7627 19.5708C68.4919 19.7137 68.2029 19.9816 68.1127 20.1602C67.914 20.5353 67.8418 21.9819 68.0043 21.9819C68.0585 21.9819 68.4016 21.7319 68.7447 21.4461C69.7017 20.6067 70.8574 20.7496 70.9657 21.714C71.056 22.5534 70.9477 22.7142 69.9906 23.1607C68.6002 23.8036 68.0404 24.4466 67.9321 25.5182C67.8418 26.5898 68.2029 27.3756 68.9614 27.6971C69.4489 27.8935 69.6114 27.8757 70.2796 27.5542C70.8935 27.2327 71.056 27.2149 71.2185 27.4113C71.7783 28.1257 73.2771 27.6256 73.2771 26.7326C73.2771 26.3397 73.2049 26.2862 72.8437 26.3754C72.3381 26.5005 72.3742 26.6969 72.4103 23.8394C72.4465 20.446 71.9589 19.4815 70.2073 19.3565C69.5753 19.3208 69.0878 19.3922 68.7627 19.5708ZM70.9657 24.9824C70.9657 26.1254 70.9296 26.2326 70.4962 26.429C69.3947 26.9291 68.6363 25.3753 69.5753 24.5359C69.9906 24.143 70.6046 23.7858 70.8393 23.7679C70.9116 23.7679 70.9657 24.3216 70.9657 24.9824Z" fill="#1F1F1F"/>
<path id="Vector_20" d="M76.1121 19.8566L75.4801 20.4102V19.9459C75.4801 19.5351 75.4079 19.4815 74.8481 19.4815H74.2161V23.5536V27.6435L74.8481 27.6613L75.4801 27.6792V24.6787C75.4801 21.7319 75.4981 21.6604 75.9315 21.1961C76.3649 20.7317 77.1233 20.5888 77.6109 20.8924C78.0262 21.1425 78.1887 22.3212 78.1887 25.0716V27.7149L78.7846 27.6613L79.3624 27.6077L79.4166 24.5359L79.4527 21.464L79.9403 21.1068C80.5001 20.6603 81.1321 20.6245 81.5113 21.0175C81.6738 21.1603 81.8183 21.3032 81.8363 21.3211C81.8544 21.3389 81.9085 22.7677 81.9627 24.4823L82.0711 27.6077H82.7031H83.3351V24.5716C83.317 21.1782 83.1726 20.4638 82.3239 19.7494C81.5293 19.0886 80.6987 19.1422 79.868 19.9101L79.1999 20.4995L78.6221 19.9101C77.8637 19.0886 77.015 19.0707 76.1121 19.8566Z" fill="#1F1F1F"/>
<path id="Vector_21" d="M89.2399 19.678C88.3009 20.2852 87.8856 21.2675 87.7953 23.1607C87.723 24.5359 87.7772 24.9109 88.1203 25.6968C88.5717 26.7148 89.5288 27.6792 90.1608 27.7149C91.172 27.7864 92.0568 27.6256 92.5986 27.3042C93.1042 27.0005 93.1764 26.8577 93.1764 26.1611C93.1764 25.7325 93.1403 25.3753 93.1042 25.3753C93.05 25.3753 92.725 25.5539 92.3638 25.7503C91.479 26.2683 90.4136 26.2683 89.8177 25.7146C89.4204 25.3396 88.8607 24.0358 89.0412 23.8751C89.0774 23.8215 90.0525 23.7679 91.1901 23.7322L93.2667 23.6786L93.2306 22.6427C93.1403 19.9995 91.1178 18.4992 89.2399 19.678ZM91.5693 21.2675C91.7499 21.5176 91.9485 21.9283 92.0207 22.1962L92.1291 22.6963H90.5761C89.6371 22.6963 89.0232 22.6249 89.0232 22.5177C89.0232 22.1069 89.5468 21.1068 89.8719 20.9282C90.3955 20.6067 91.2081 20.7674 91.5693 21.2675Z" fill="#1F1F1F"/>
<path id="Vector_22" d="M96.5352 19.7494C95.9212 20.1602 95.8851 20.1602 95.8851 19.8387C95.8851 19.553 95.7587 19.4815 95.2531 19.4815H94.6211V23.6071V27.7149L95.217 27.6613L95.7948 27.6077L95.849 24.643C95.8851 21.7497 95.9032 21.6604 96.3366 21.1961C96.6977 20.8031 96.9324 20.7138 97.4742 20.7674C98.052 20.821 98.1604 20.8924 98.359 21.4461C98.4854 21.8212 98.5757 23.1964 98.5757 24.8752L98.5937 27.697H99.2257H99.8578V24.643C99.8578 21.2139 99.6952 20.3924 98.9007 19.7315C98.2326 19.1779 97.3839 19.1779 96.5352 19.7494Z" fill="#1F1F1F"/>
<path id="Vector_23" d="M127.702 19.4815C126.565 19.9637 125.86 21.5354 125.86 23.5714C125.86 24.6252 125.969 25.1431 126.294 25.8218C126.691 26.6969 127.648 27.6792 128.081 27.7149C128.208 27.7149 128.443 27.7506 128.623 27.7864C129.147 27.8757 130.7 27.4292 131.097 27.072C131.368 26.8219 131.458 26.554 131.422 26.054C131.386 25.3038 131.332 25.2681 130.826 25.6253C129.291 26.679 127.54 26.0718 127.197 24.3394L127.088 23.7679H129.273H131.458V23.0892C131.458 22.0712 130.989 20.7317 130.411 20.0352C129.996 19.5351 129.779 19.4279 129.02 19.3744C128.515 19.3386 127.937 19.3922 127.702 19.4815ZM129.616 21.1425C129.833 21.3747 130.068 21.8033 130.122 22.1248L130.248 22.6963H128.677C127.829 22.6963 127.124 22.6249 127.124 22.5356C127.124 22.4463 127.197 22.1605 127.305 21.9105C127.738 20.7496 128.894 20.3745 129.616 21.1425Z" fill="#1F1F1F"/>
<path id="Vector_24" d="M43.5908 21.1246C43.9339 22.0355 44.4575 23.4821 44.7826 24.3215L45.3604 25.8575L44.3492 28.6793C43.7894 30.2153 43.338 31.5548 43.338 31.6441C43.338 31.7334 43.6449 31.8048 44.0241 31.8048H44.6923L46.3897 27.0184C47.3287 24.393 48.3218 21.6247 48.5927 20.8567L49.1163 19.4636L48.3399 19.5172L47.5815 19.5708L46.8411 21.714C45.9924 24.1608 46.1369 24.1965 45.0895 21.2675L44.4756 19.5708L43.7172 19.5172L42.9768 19.4636L43.5908 21.1246Z" fill="#1F1F1F"/>
<path id="Vector_25" d="M49.8747 22.732C49.9289 26.4469 50.0914 26.9827 51.3193 27.5721C51.8972 27.8578 52.0416 27.8578 52.5833 27.6435C52.9084 27.5006 53.3056 27.2506 53.4501 27.072C53.7029 26.7684 53.721 26.7862 53.8112 27.1791C53.9015 27.5363 54.0279 27.6078 54.5335 27.6078H55.1656L55.2197 23.5357L55.2739 19.4815H54.5335H53.8112V22.4999V25.5182L53.2515 25.9825C52.6375 26.5005 52.2402 26.554 51.7527 26.2147C51.2832 25.8754 51.1026 24.8038 51.1026 22.0176V19.4815H50.4526H49.8025L49.8747 22.732Z" fill="#1F1F1F"/>
<path id="Vector_26" d="M85.0505 23.5714V27.6613L85.6464 27.6435L86.2243 27.6077L86.2784 23.5357L86.3146 19.4815H85.6825H85.0505V23.5714Z" fill="#1F1F1F"/>
<path id="Vector_27" d="M107.695 19.8209C106.467 20.5531 105.817 21.9105 105.817 23.6607C105.817 26.9648 108.832 28.8937 111.053 27.0363C112.642 25.7325 112.967 22.7142 111.721 20.8925C110.801 19.5351 108.977 19.0529 107.695 19.8209ZM109.97 21.1782C110.71 21.5533 111.126 22.4105 111.126 23.5893C111.126 25.3217 110.114 26.429 108.778 26.1968C107.081 25.8754 106.503 22.8749 107.893 21.4997C108.561 20.8389 109.139 20.7496 109.97 21.1782Z" fill="#1F1F1F"/>
<path id="Vector_28" d="M57.1157 32.7157C55.7434 32.9657 54.5516 33.7873 53.6306 35.091C51.8791 37.6271 51.8791 41.7885 53.6126 44.4675C54.678 46.0927 56.0503 46.8428 57.9825 46.8428C59.3187 46.8428 60.2397 46.6107 61.1787 46.057C61.7204 45.7177 61.7565 45.6462 61.7565 44.6461C61.7565 44.0746 61.7204 43.5923 61.6662 43.5923C61.6301 43.5923 61.287 43.7888 60.9259 44.0388C60.2397 44.5032 58.7228 45.0211 58.0728 45.0211C56.0865 45.0211 54.3349 43.1994 54.0098 40.8241C53.6126 38.0022 54.8405 35.484 56.9713 34.7696C57.9464 34.4302 59.6257 34.6981 60.673 35.3411C61.1606 35.6447 61.594 35.8412 61.6482 35.7697C61.7023 35.7161 61.7565 35.2518 61.7565 34.7339C61.7565 33.8051 61.7384 33.7694 61.0884 33.4479C59.6979 32.7514 58.3075 32.5014 57.1157 32.7157Z" fill="#1F1F1F"/>
<path id="Vector_29" d="M67.9503 32.7335C65.657 33.1265 63.9415 34.9839 63.3637 37.6986C63.0747 39.1095 63.2553 41.8421 63.7068 43.0387C64.5013 45.039 65.8375 46.3249 67.6252 46.7178C71.3089 47.5751 74.4148 44.4317 74.4148 39.8775C74.4148 37.3771 73.8731 35.7876 72.5368 34.3588C71.2909 33.0372 69.6296 32.4299 67.9503 32.7335ZM69.9366 34.7696C71.652 35.3411 72.8077 37.3235 72.8258 39.7346C72.8438 43.5209 69.9366 45.9856 67.1557 44.5568C66.4154 44.1817 65.4042 42.9315 65.0791 41.9492C64.7541 40.9491 64.6999 38.9845 64.9888 37.9486C65.5486 35.9662 67.0474 34.6088 68.817 34.5017C68.9615 34.4838 69.4671 34.6088 69.9366 34.7696Z" fill="#1F1F1F"/>
<path id="Vector_30" d="M128.569 32.6979C127.197 32.9479 126.348 33.8409 126.077 35.3768C125.698 37.3771 126.203 38.4666 128.316 40.2704C130.086 41.7707 130.375 42.1993 130.375 43.253C130.375 45.3784 128.045 45.6462 126.492 43.7174L126.041 43.1459V44.4318V45.7355L126.727 46.1642C127.991 47.0036 129.526 47.0572 130.537 46.3249C132.054 45.1998 132.379 42.3243 131.187 40.5205C130.934 40.1454 130.104 39.3239 129.309 38.6809C128.352 37.8951 127.792 37.3057 127.612 36.8413C126.799 34.8232 128.894 33.7159 130.754 35.1804L131.458 35.7519V34.591C131.458 33.448 131.44 33.4122 130.88 33.1265C130.068 32.6979 129.309 32.5728 128.569 32.6979Z" fill="#1F1F1F"/>
<path id="Vector_31" d="M0.0902694 33.8051C0.306959 35.8411 0.72228 37.2342 1.64321 39.0738C3.99068 43.7888 8.79396 46.7892 14.0848 46.8428C16.0892 46.8607 16.992 46.7356 18.5992 46.2356C20.9827 45.4855 22.7524 44.4317 24.4498 42.7708C26.8695 40.3954 28.296 37.3771 28.6391 33.948L28.7655 32.6978H14.3557H-0.0361328L0.0902694 33.8051Z" fill="#1F1F1F"/>
<path id="Vector_32" d="M38.2275 32.8229C38.1734 32.9122 37.9386 33.6087 37.6858 34.3945C37.433 35.1804 36.4398 38.2344 35.5008 41.1634C34.5438 44.1103 33.7673 46.5749 33.7673 46.6464C33.7673 46.7178 34.1104 46.7535 34.5257 46.7357L35.2842 46.7178L35.9342 44.7532L36.6024 42.7887L38.8415 42.7351L41.0806 42.6815L41.7668 44.7175L42.4349 46.7535H43.2656C43.7892 46.7535 44.0601 46.6821 44.0059 46.5571C43.9698 46.4499 42.9044 43.2887 41.6404 39.5203L39.329 32.6978H38.8234C38.5345 32.6978 38.2636 32.7514 38.2275 32.8229ZM39.6902 38.538L40.4305 40.7348H38.8957C37.8844 40.7348 37.3788 40.6633 37.3788 40.5383C37.3788 40.0561 38.7151 36.0912 38.8234 36.2162C38.8957 36.3055 39.2929 37.3414 39.6902 38.538Z" fill="#1F1F1F"/>
<path id="Vector_33" d="M45.27 32.805C45.1977 32.8764 45.1436 36.0555 45.1436 39.8775V46.8071L48.2675 46.7714L51.3734 46.7178L51.4275 45.7713L51.4817 44.8425H49.1343H46.7687L46.7326 38.8059L46.6784 32.7871L46.0464 32.7336C45.6853 32.6978 45.3422 32.7336 45.27 32.805Z" fill="#1F1F1F"/>
<path id="Vector_34" d="M76.4371 32.805C76.2566 32.8764 76.2024 34.4481 76.2024 39.7524C76.2024 45.9855 76.2205 46.5928 76.5094 46.6999C76.9608 46.8785 79.9764 46.8071 80.807 46.5928C82.4683 46.182 83.4434 44.8425 83.4615 42.9851C83.4615 42.3957 83.3351 41.6099 83.1726 41.2527C82.8656 40.5204 81.7641 39.4845 81.2946 39.4845C81.0598 39.4667 81.0779 39.3952 81.4571 39.0738C83.0823 37.7164 82.9017 34.4838 81.114 33.3229C80.482 32.9121 80.175 32.8407 78.5318 32.7871C77.5025 32.7335 76.5455 32.7514 76.4371 32.805ZM80.4459 35.1089C80.8793 35.5197 80.9876 35.984 80.8973 36.9842C80.789 38.1629 79.9764 38.7701 78.5318 38.7701H77.8276V36.7163V34.6624H78.911C79.8319 34.6624 80.0847 34.7338 80.4459 35.1089ZM81.2946 41.2527C81.6919 41.6813 81.8002 41.9849 81.8002 42.61C81.8002 44.2888 81.114 44.8425 79.0916 44.8425H77.8276V42.6815V40.5026L79.3083 40.5919C80.6806 40.6812 80.807 40.7169 81.2946 41.2527Z" fill="#1F1F1F"/>
<path id="Vector_35" d="M85.1049 32.805C84.9243 32.8943 84.8701 34.4481 84.8701 39.7525C84.8701 45.8248 84.9062 46.6107 85.159 46.7C85.3216 46.7535 86.6939 46.8071 88.2107 46.8071C91.2444 46.8071 91.2444 46.8071 91.118 45.7355C91.0819 45.4855 91.0458 45.1819 91.0277 45.0569C91.0097 44.8961 90.4318 44.8425 88.7525 44.8425H86.4953V42.6994V40.5562H88.6622H90.8291V39.6632V38.7702H88.6622H86.4953V36.7163V34.6803L88.7164 34.6267L90.9194 34.5731V33.6801V32.7871L88.1205 32.7514C86.5856 32.7336 85.2132 32.7693 85.1049 32.805Z" fill="#1F1F1F"/>
<path id="Vector_36" d="M92.707 32.93C92.6709 33.055 92.6528 36.1983 92.6709 39.931L92.7251 46.7178H93.3571H93.9891L94.0794 41.4491L94.1697 36.1805L95.542 38.2344C96.2824 39.3595 97.8714 41.7528 99.0452 43.5566L101.194 46.825L101.826 46.7714L102.476 46.7178V39.7524V32.7871H101.754H101.032L100.941 38.0558L100.851 43.3066L98.8827 40.2882C94.0974 32.9657 93.971 32.7871 93.3571 32.7514C93.0501 32.7335 92.7612 32.805 92.707 32.93Z" fill="#1F1F1F"/>
<path id="Vector_37" d="M104.823 32.8407C104.769 32.8943 104.733 36.0555 104.733 39.8775V46.8071H106.503C110.187 46.7893 111.794 46.1999 113.022 44.3782C114.322 42.4136 114.719 39.2703 113.942 36.9842C113.04 34.3409 111.703 33.1979 109.103 32.8764C107.677 32.68 105.004 32.6621 104.823 32.8407ZM110.313 35.0196C111.992 35.859 112.769 37.5379 112.642 40.0918C112.588 41.467 112.498 41.8599 112.046 42.6636C111.089 44.396 110.205 44.8425 107.677 44.8425H106.178V39.7525V34.6624H107.893C109.266 34.6624 109.771 34.7339 110.313 35.0196Z" fill="#1F1F1F"/>
<path id="Vector_38" d="M118.403 36.3055C117.753 38.3058 116.742 41.4135 116.146 43.2352C115.405 45.5034 115.134 46.575 115.279 46.6643C115.387 46.7357 115.73 46.8071 116.037 46.8071C116.615 46.8071 116.615 46.8071 117.265 44.7532L117.933 42.6994H120.154H122.393L123.062 44.6104C123.423 45.682 123.82 46.5928 123.928 46.6643C124.217 46.8428 125.319 46.8428 125.319 46.6643C125.319 46.5928 124.271 43.4495 123.007 39.6632L120.678 32.7871L120.136 32.7336L119.577 32.68L118.403 36.3055ZM121.635 40.4133C121.725 40.6991 121.581 40.7348 120.172 40.7348C118.764 40.7348 118.619 40.6991 118.71 40.4133C119.161 38.8774 119.974 36.3234 120.046 36.1984C120.118 36.0555 120.841 37.9844 121.635 40.4133Z" fill="#1F1F1F"/>
</g>
</g>
<defs>
<clipPath id="clip0_71_390">
<rect width="132" height="47" fill="white"/>
</clipPath>
</defs>
</svg>
